<?xml version="1.0" standalone="no"?>
<!DOCTYPE svg PUBLIC "-//W3C//DTD SVG 20010904//EN"
 "http://www.w3.org/TR/2001/REC-SVG-20010904/DTD/svg10.dtd">
<svg version="1.0" xmlns="http://www.w3.org/2000/svg"
 width="1024.000000pt" height="1024.000000pt" viewBox="0 0 1024.000000 1024.000000"
 preserveAspectRatio="xMidYMid meet">

<g transform="translate(0.000000,1024.000000) scale(0.100000,-0.100000)"
fill="#000000" stroke="none">
<path d="M3060 7490 c-144 -27 -311 -118 -408 -224 -119 -130 -212 -337 -229
-510 l-6 -68 54 57 c62 65 190 154 266 184 132 52 313 66 470 36 43 -8 177
-49 298 -91 745 -258 798 -274 922 -274 131 0 228 49 275 140 53 100 29 233
-55 307 -57 50 -142 85 -452 187 -681 223 -810 257 -975 262 -63 1 -135 -1
-160 -6z"/>
<path d="M6830 7481 c-231 -50 -1027 -302 -1142 -363 -106 -56 -165 -134 -175
-232 -15 -151 94 -269 264 -283 152 -12 276 23 1060 306 166 60 252 74 402 69
96 -4 142 -11 191 -28 132 -46 242 -115 344 -214 l49 -48 -7 62 c-25 222 -142
444 -302 574 -78 64 -240 141 -338 160 -101 21 -239 19 -346 -3z"/>
<path d="M2475 6079 c-13 -11 -29 -37 -36 -57 -17 -55 -24 -1159 -10 -1454 43
-864 146 -1322 362 -1608 172 -227 635 -599 1429 -1145 437 -300 652 -432 770
-471 86 -29 226 -25 311 8 131 52 337 181 809 511 801 559 1191 881 1362 1121
209 294 311 783 348 1681 21 500 6 1306 -25 1380 -25 60 -87 65 -114 10 -8
-16 -27 -117 -42 -224 -89 -610 -142 -804 -269 -991 -39 -58 -120 -141 -180
-186 -89 -66 -251 -127 -357 -135 -41 -3 -42 -2 -86 63 -131 196 -315 348
-572 473 -282 137 -604 207 -804 176 -40 -6 -115 -27 -165 -46 l-91 -34 -100
34 c-121 41 -258 60 -375 50 -91 -7 -305 -58 -410 -98 -307 -116 -600 -334
-741 -553 -48 -73 -52 -75 -172 -48 -115 26 -241 92 -325 170 -209 193 -284
405 -381 1071 -24 163 -44 272 -54 287 -22 32 -52 38 -82 15z m2846 -1647
c170 -99 307 -147 544 -187 202 -35 239 -48 296 -105 63 -63 88 -139 68 -208
-7 -25 -28 -63 -46 -83 -73 -81 -190 -79 -483 7 -363 107 -404 116 -538 121
-152 7 -230 -5 -426 -64 -308 -91 -400 -114 -492 -120 -77 -5 -97 -3 -136 14
-114 51 -139 179 -59 305 46 72 115 100 334 138 270 45 377 87 641 248 l100
60 55 -37 c31 -21 95 -61 142 -89z"/>
</g>
</svg>
