<?xml version="1.0" standalone="no"?>
<!DOCTYPE svg PUBLIC "-//W3C//DTD SVG 20010904//EN"
 "http://www.w3.org/TR/2001/REC-SVG-20010904/DTD/svg10.dtd">
<svg version="1.0" xmlns="http://www.w3.org/2000/svg"
 width="1024.000000pt" height="1024.000000pt" viewBox="0 0 1024.000000 1024.000000"
 preserveAspectRatio="xMidYMid meet">

<g transform="translate(0.000000,1024.000000) scale(0.100000,-0.100000)"
fill="#000000" stroke="none">
<path d="M3480 7444 c-91 -15 -142 -30 -195 -56 -207 -102 -363 -327 -382
-548 l-6 -75 54 49 c159 143 301 200 494 199 132 -1 225 -23 455 -108 404
-149 581 -199 706 -200 85 0 93 2 128 29 89 67 111 226 44 311 -29 37 -86 63
-360 166 -403 151 -514 187 -653 213 -87 16 -245 27 -285 20z"/>
<path d="M6630 7443 c-163 -16 -287 -51 -624 -175 -463 -170 -505 -191 -538
-265 -16 -36 -19 -58 -14 -100 12 -105 47 -158 125 -191 42 -18 55 -19 131
-10 117 14 273 61 555 166 349 131 509 165 655 143 139 -22 270 -87 386 -194
l54 -49 0 44 c0 199 -132 420 -323 542 -120 77 -250 105 -407 89z"/>
<path d="M2895 6250 c-13 -21 -18 -1097 -6 -1340 35 -713 146 -1132 371 -1399
89 -106 586 -496 962 -757 456 -315 745 -479 879 -499 104 -15 254 50 561 242
433 271 1077 752 1284 957 231 230 352 563 409 1126 30 304 41 1176 19 1578
l-6 102 -42 0 c-68 0 -74 -10 -86 -140 -30 -330 -91 -624 -167 -805 -68 -162
-223 -311 -393 -377 -118 -46 -122 -45 -166 20 -66 97 -248 270 -367 350 -231
154 -484 242 -696 242 -105 0 -161 -16 -241 -69 -30 -20 -60 -39 -66 -43 -6
-4 -42 12 -81 37 -95 59 -148 75 -244 75 -211 0 -467 -90 -703 -247 -113 -76
-302 -256 -361 -346 -36 -54 -40 -57 -69 -51 -173 37 -351 161 -446 310 -90
143 -168 456 -205 827 -20 199 -25 211 -87 215 -26 2 -49 -2 -53 -8z m2478
-1445 c111 -51 213 -83 372 -115 79 -16 162 -38 184 -49 79 -41 129 -135 110
-205 -16 -56 -51 -100 -94 -115 -51 -17 -191 -2 -315 35 -243 71 -269 76 -438
81 -203 7 -299 -5 -495 -63 -224 -65 -352 -77 -414 -38 -29 19 -63 85 -63 124
0 66 54 146 122 181 21 11 104 33 183 49 227 46 377 105 537 210 l72 47 83
-54 c46 -30 116 -70 156 -88z"/>
</g>
</svg>
